<svg width="333" height="381" viewBox="0 0 333 381" fill="none" xmlns="http://www.w3.org/2000/svg">
<path fill-rule="evenodd" clip-rule="evenodd" d="M159.327 3.08027C164.194 0.266895 170.204 0.309878 175.031 3.19258L245.688 45.3906L167.666 90.2269L87.7651 44.4416L159.327 3.08027ZM86.7638 45.0204L8.74365 90.1146C6.16615 91.6043 4.12113 93.7725 2.78144 96.3196L81.2714 139.874L166.661 90.804L86.7638 45.0204ZM2.34409 97.2206C1.47169 99.176 1 101.322 1 103.534V188.528L79.9651 235.048L80.6894 140.695L2.34409 97.2206ZM1 189.689V274.843C1 280.318 3.88816 285.387 8.59806 288.178L79.2359 330.037L79.9535 236.561L79.9408 236.569L79.6317 236.012L1 189.689ZM80.2314 330.627L157.885 376.644C160.459 378.169 163.365 378.89 166.254 378.803V291.329C166.254 290.482 166.111 289.655 165.842 288.878L165.433 289.113L164.936 288.245L165.45 287.951C164.812 286.688 163.82 285.609 162.56 284.867L80.9518 236.79L80.2314 330.627ZM167.254 379.745C169.608 379.535 171.927 378.819 174.044 377.595L324.659 290.543C329.76 287.594 332.902 282.149 332.902 276.257V105.677C332.902 99.8688 329.849 94.4886 324.862 91.5107L175.543 2.33404C170.405 -0.734646 164.008 -0.780403 158.826 2.21448L8.24324 89.2488C3.14193 92.1972 0 97.6422 0 103.534V274.843C0 280.671 3.07449 286.067 8.08826 289.038L157.376 377.505C160.106 379.123 163.189 379.89 166.254 379.803V380.149C166.587 380.153 166.92 380.147 167.254 380.131V379.745ZM167.254 378.74V291.329C167.254 290.304 167.069 289.306 166.723 288.374L250.12 240.633L250.073 332.497L173.544 376.73C171.582 377.863 169.434 378.533 167.254 378.74ZM251.073 331.919L324.159 289.677C328.951 286.907 331.902 281.792 331.902 276.257V193.816L251.12 240.06L251.073 331.919ZM331.902 192.664V105.677C331.902 103.132 331.278 100.674 330.137 98.4926L250.694 140.2C251.005 141.089 251.17 142.037 251.17 143.007L251.121 238.908L331.902 192.664ZM329.645 97.6215C328.354 95.5002 326.553 93.6851 324.35 92.3692L246.672 45.9783L168.671 90.8028L246.896 135.628C248.398 136.489 249.573 137.769 250.308 139.273L329.645 97.6215ZM168.042 91.595L246.399 136.496C248.732 137.833 250.171 140.317 250.17 143.007L250.121 239.106L172.79 189.561C169.847 187.676 166.107 187.559 163.052 189.256L80.9666 234.855L81.6887 140.788L167.042 91.7384L167.494 187.9L168.494 187.895L168.042 91.595ZM172.25 190.403L249.451 239.864L166.319 287.453C165.596 286.042 164.48 284.837 163.068 284.005L81.2818 235.824L163.537 190.13C166.271 188.612 169.617 188.717 172.25 190.403Z" fill="url(#paint0_linear_3_18)"/>
<defs>
<linearGradient id="paint0_linear_3_18" x1="166.451" y1="0" x2="166.451" y2="380.15" gradientUnits="userSpaceOnUse">
<stop stop-color="#8C4DDE"/>
<stop offset="1" stop-color="#B685F5" stop-opacity="0"/>
</linearGradient>
</defs>
</svg>
