<svg width="1341" height="1080" viewBox="0 0 1341 1080" fill="none" xmlns="http://www.w3.org/2000/svg">
<mask id="mask0_1_3" style="mask-type:alpha" maskUnits="userSpaceOnUse" x="0" y="-131" width="1341" height="1342">
<rect width="992" height="992" transform="matrix(-0.884374 -0.466779 -0.466779 0.884374 1341 333)" fill="url(#paint0_linear_1_3)"/>
</mask>
<g mask="url(#mask0_1_3)">
<circle opacity="0.9" cx="112" cy="112" r="111.5" transform="matrix(-0.884374 -0.466779 -0.466779 0.884374 822.157 493.357)" stroke="#FF78AA" stroke-opacity="0.4"/>
<circle opacity="0.8" cx="160" cy="160" r="159.5" transform="matrix(-0.884374 -0.466779 -0.466779 0.884374 887.013 473.312)" stroke="#FF78AA" stroke-opacity="0.6"/>
<circle opacity="0.7" cx="208" cy="208" r="207.5" transform="matrix(-0.884374 -0.466779 -0.466779 0.884374 951.868 453.267)" stroke="#FF78AA"/>
<circle opacity="0.6" cx="256" cy="256" r="255.5" transform="matrix(-0.884374 -0.466779 -0.466779 0.884374 1016.72 433.223)" stroke="#FF78AA"/>
<circle opacity="0.5" cx="304" cy="304" r="303.5" transform="matrix(-0.884374 -0.466779 -0.466779 0.884374 1081.58 413.178)" stroke="#FF78AA"/>
<circle opacity="0.4" cx="352" cy="352" r="351.5" transform="matrix(-0.884374 -0.466779 -0.466779 0.884374 1146.43 393.134)" stroke="#FF78AA"/>
<circle opacity="0.3" cx="400" cy="400" r="399.5" transform="matrix(-0.884374 -0.466779 -0.466779 0.884374 1211.29 373.089)" stroke="#FF78AA"/>
<circle opacity="0.2" cx="448" cy="448" r="447.5" transform="matrix(-0.884374 -0.466779 -0.466779 0.884374 1276.14 353.045)" stroke="#FF78AA"/>
<circle opacity="0.1" cx="496" cy="496" r="495.5" transform="matrix(-0.884374 -0.466779 -0.466779 0.884374 1341 333)" stroke="#FF78AA"/>
<circle cx="64" cy="64" r="63.5" transform="matrix(-0.884374 -0.466779 -0.466779 0.884374 757.302 513.401)" stroke="#FF78AA" stroke-opacity="0.2"/>
</g>
<defs>
<linearGradient id="paint0_linear_1_3" x1="496" y1="0" x2="496" y2="992" gradientUnits="userSpaceOnUse">
<stop offset="0.437233" stop-color="white"/>
<stop offset="0.662338" stop-color="white" stop-opacity="0"/>
</linearGradient>
</defs>
</svg>
